<?xml version="1.0" encoding="utf-8"?>
<!-- Generator: Adobe Illustrator 18.0.0, SVG Export Plug-In . SVG Version: 6.00 Build 0)  -->
<!DOCTYPE svg PUBLIC "-//W3C//DTD SVG 1.1//EN" "http://www.w3.org/Graphics/SVG/1.1/DTD/svg11.dtd">
<svg version="1.1" id="Ebene_1" xmlns="http://www.w3.org/2000/svg" xmlns:xlink="http://www.w3.org/1999/xlink" x="0px" y="0px"
	 viewBox="0 0 17.9 17.4" enable-background="new 0 0 17.9 17.4" xml:space="preserve">
<path fill-rule="evenodd" clip-rule="evenodd" fill="#231F20" d="M17.9,4.8v1.9h-2.4V4.8c0-1.3-1-2.3-2.3-2.3c-1.2,0-2.3,1-2.3,2.3
	v1.9H8.6V4.8c0-2.6,2.1-4.8,4.7-4.8C15.8,0,17.9,2.1,17.9,4.8z"/>
<g>
	<path fill="#231F20" d="M12.8,17.4H0V8.2h12.8V17.4z M0.8,16.6H12V9H0.8V16.6z"/>
	<path fill="#231F20" d="M8.1,15.7H4.7l0.5-2.9c-0.3-0.3-0.5-0.8-0.5-1.3c0-0.2,0-0.4,0.1-0.6c0.3-0.7,0.9-1.1,1.6-1.1
		s1.3,0.4,1.6,1.1c0.1,0.2,0.1,0.4,0.1,0.6c0,0.5-0.2,0.9-0.5,1.3l0.1,0.4L8.1,15.7z M5.7,14.9h1.4l-0.4-2.5l0.2-0.1
		c0.2-0.2,0.4-0.5,0.4-0.8c0-0.1,0-0.2-0.1-0.3c-0.1-0.3-0.5-0.6-0.8-0.6s-0.7,0.2-0.8,0.6c0,0.1-0.1,0.2-0.1,0.3
		c0,0.3,0.1,0.6,0.4,0.8l0.2,0.1L6,13.3L5.7,14.9z"/>
</g>
</svg>
