<?xml version="1.0" encoding="utf-8"?>
<!-- Generated by IcoMoon.io -->
<!DOCTYPE svg PUBLIC "-//W3C//DTD SVG 1.1//EN" "http://www.w3.org/Graphics/SVG/1.1/DTD/svg11.dtd">
<svg version="1.1" xmlns="http://www.w3.org/2000/svg" xmlns:xlink="http://www.w3.org/1999/xlink" width="25" height="32" viewBox="0 0 25 32">
<g id="icomoon-ignore">
	<line stroke-width="1" x1="" y1="" x2="" y2="" stroke="#449FDB" opacity=""></line>
</g>
	<path d="M23.897 4.408c0.817 0 1.469 0.654 1.469 1.469v0.98c0 0.654-0.49 1.307-1.144 1.469v21.224c0 1.307-1.144 2.449-2.612 2.449l-17.957 0.002c-1.469 0-2.612-1.144-2.612-2.449v-21.224c-0.653-0.163-1.144-0.817-1.144-1.47v-0.979c0-0.817 0.653-1.469 1.469-1.469h4.408l0.002-1.797c0-1.469 1.142-2.612 2.449-2.612h8.654c1.469 0 2.612 1.144 2.612 2.612v1.795h4.408zM20.958 29.061c0.163 0 0.327-0.163 0.327-0.327v-20.408h-17.307v20.408c0 0.163 0.163 0.327 0.327 0.327h16.653zM7.407 27.429c-0.817 0-1.469-0.654-1.469-1.469l-0-14.531c0-0.817 0.654-1.307 1.469-1.307h0.327c0.817 0 1.469 0.653 1.469 1.307v14.531c0 0.817-0.653 1.469-1.469 1.469h-0.327zM8.224 2.285c-0.163 0-0.327 0-0.327 0.327v1.795h9.469v-1.795c0-0.163-0.163-0.327-0.327-0.327l-8.815 0zM12.468 27.429c-0.817 0-1.469-0.654-1.469-1.469v-14.531c0-0.817 0.653-1.307 1.469-1.307h0.163c0.817 0 1.469 0.653 1.469 1.307v14.531c0 0.817-0.653 1.469-1.469 1.469h-0.163zM17.529 27.429c-0.817 0-1.469-0.654-1.469-1.469v-14.531c0-0.817 0.654-1.307 1.469-1.307h0.327c0.817 0 1.469 0.653 1.469 1.307v14.531c0 0.817-0.654 1.469-1.469 1.469h-0.327z" fill="#000000"></path>
</svg>
