<?xml version="1.0" encoding="utf-8"?>
<!-- Generated by IcoMoon.io -->
<!DOCTYPE svg PUBLIC "-//W3C//DTD SVG 1.1//EN" "http://www.w3.org/Graphics/SVG/1.1/DTD/svg11.dtd">
<svg version="1.1" xmlns="http://www.w3.org/2000/svg" xmlns:xlink="http://www.w3.org/1999/xlink" width="24" height="32" viewBox="0 0 24 32">
<g id="icomoon-ignore">
	<line stroke-width="1" x1="" y1="" x2="" y2="" stroke="#449FDB" opacity=""></line>
</g>
	<path d="M21.312 9.528v3.742h-4.8v-3.742c0-2.546-2.024-4.616-4.512-4.616s-4.512 2.070-4.512 4.616v3.742h-4.8v-3.742c-0.002-5.252 4.178-9.528 9.312-9.528 5.136 0 9.312 4.276 9.312 9.528zM0 15.122v16.878h24v-16.878h-24zM9.632 30.028l0.756-6.124 0.16-1.306c-0.676-0.476-1.116-1.27-1.116-2.17 0-0.348 0.066-0.678 0.184-0.978 0.378-0.964 1.302-1.648 2.384-1.648s2.006 0.684 2.384 1.648c0.118 0.302 0.184 0.632 0.184 0.978 0 0.9-0.444 1.696-1.12 2.166l0.162 1.308 0.752 6.124h-4.73z" fill="#000000"></path>
</svg>
